<?xml version="1.0" encoding="utf-8" ?>
<svg baseProfile="tiny" height="100%" version="1.2" width="100%" xmlns="http://www.w3.org/2000/svg" xmlns:ev="http://www.w3.org/2001/xml-events" xmlns:xlink="http://www.w3.org/1999/xlink"><defs /><rect fill="white" height="100%" width="100%" x="0" y="0" /><path d="M 235,113 L 234,114 L 221,114 L 220,115 L 213,115 L 212,116 L 208,116 L 207,117 L 203,117 L 202,118 L 199,118 L 198,119 L 195,119 L 194,120 L 192,120 L 191,121 L 189,121 L 188,122 L 187,122 L 186,123 L 184,123 L 183,124 L 182,124 L 181,125 L 180,125 L 179,126 L 177,126 L 175,128 L 174,128 L 173,129 L 172,129 L 171,130 L 170,130 L 169,131 L 168,131 L 166,133 L 165,133 L 163,135 L 162,135 L 160,137 L 159,137 L 155,141 L 154,141 L 142,153 L 142,154 L 138,158 L 138,159 L 135,162 L 135,163 L 133,165 L 133,166 L 132,167 L 132,168 L 130,170 L 130,171 L 129,172 L 129,173 L 128,174 L 128,175 L 127,176 L 127,177 L 126,178 L 126,179 L 125,180 L 125,181 L 124,182 L 124,184 L 123,185 L 123,186 L 122,187 L 122,189 L 121,190 L 121,192 L 120,193 L 120,195 L 119,196 L 119,198 L 118,199 L 118,202 L 117,203 L 117,207 L 116,208 L 116,213 L 115,214 L 115,221 L 114,222 L 114,799 L 115,800 L 115,807 L 116,808 L 116,813 L 117,814 L 117,818 L 118,819 L 118,822 L 119,823 L 119,826 L 120,827 L 120,829 L 121,830 L 121,832 L 122,833 L 122,835 L 123,836 L 123,837 L 124,838 L 124,840 L 125,841 L 125,842 L 126,843 L 126,844 L 127,845 L 127,846 L 128,847 L 128,848 L 129,849 L 129,850 L 130,851 L 130,852 L 131,853 L 131,854 L 133,856 L 133,857 L 135,859 L 135,860 L 137,862 L 137,863 L 140,866 L 140,867 L 147,874 L 147,875 L 150,878 L 151,878 L 157,884 L 158,884 L 161,887 L 162,887 L 164,889 L 165,889 L 167,891 L 168,891 L 170,893 L 171,893 L 172,894 L 173,894 L 174,895 L 175,895 L 176,896 L 177,896 L 178,897 L 179,897 L 180,898 L 181,898 L 182,899 L 184,899 L 185,900 L 186,900 L 187,901 L 189,901 L 190,902 L 192,902 L 193,903 L 195,903 L 196,904 L 199,904 L 200,905 L 203,905 L 204,906 L 207,906 L 208,907 L 213,907 L 214,908 L 221,908 L 222,909 L 242,909 L 243,910 L 245,910 L 246,909 L 247,910 L 248,909 L 251,909 L 252,910 L 255,910 L 256,909 L 267,909 L 268,910 L 269,909 L 270,910 L 271,909 L 272,909 L 273,910 L 274,909 L 276,909 L 277,910 L 278,909 L 299,909 L 300,910 L 301,910 L 302,909 L 306,909 L 307,910 L 308,909 L 309,909 L 310,910 L 311,909 L 317,909 L 318,910 L 319,909 L 327,909 L 328,910 L 329,909 L 339,909 L 340,910 L 341,909 L 343,909 L 344,910 L 346,910 L 347,909 L 348,910 L 351,910 L 352,909 L 355,909 L 356,910 L 357,909 L 362,909 L 363,910 L 367,910 L 368,909 L 371,909 L 372,910 L 379,910 L 380,909 L 381,910 L 382,910 L 383,909 L 384,910 L 385,909 L 386,909 L 387,910 L 388,910 L 389,909 L 390,910 L 391,909 L 392,910 L 393,909 L 394,909 L 395,910 L 398,910 L 399,909 L 400,910 L 401,909 L 406,909 L 407,910 L 409,910 L 410,909 L 448,909 L 449,910 L 451,910 L 452,909 L 455,909 L 456,910 L 458,910 L 459,909 L 460,910 L 461,909 L 467,909 L 468,910 L 469,909 L 473,909 L 474,910 L 475,909 L 485,909 L 486,910 L 487,909 L 511,909 L 512,910 L 513,909 L 516,909 L 517,910 L 518,909 L 519,909 L 520,910 L 521,909 L 527,909 L 528,910 L 529,909 L 531,909 L 532,910 L 533,910 L 534,909 L 542,909 L 543,910 L 544,910 L 545,909 L 546,910 L 547,909 L 551,909 L 552,910 L 554,910 L 555,909 L 556,909 L 557,910 L 558,909 L 563,909 L 564,910 L 565,909 L 567,909 L 568,910 L 569,910 L 570,909 L 572,909 L 573,910 L 574,909 L 599,909 L 600,910 L 601,910 L 602,909 L 603,909 L 604,910 L 605,909 L 607,909 L 608,910 L 610,910 L 611,909 L 618,909 L 619,910 L 620,910 L 621,909 L 629,909 L 630,910 L 631,910 L 632,909 L 637,909 L 638,910 L 639,909 L 645,909 L 646,910 L 647,909 L 655,909 L 656,910 L 657,909 L 671,909 L 672,910 L 673,909 L 676,909 L 677,910 L 678,910 L 679,909 L 687,909 L 688,910 L 689,910 L 690,909 L 695,909 L 696,910 L 697,910 L 698,909 L 699,909 L 700,910 L 701,909 L 702,910 L 703,910 L 704,909 L 719,909 L 720,910 L 721,909 L 736,909 L 737,910 L 738,909 L 750,909 L 751,910 L 752,909 L 800,909 L 801,908 L 808,908 L 809,907 L 813,907 L 814,906 L 818,906 L 819,905 L 822,905 L 823,904 L 826,904 L 827,903 L 829,903 L 830,902 L 832,902 L 833,901 L 835,901 L 836,900 L 838,900 L 839,899 L 840,899 L 841,898 L 842,898 L 843,897 L 844,897 L 845,896 L 846,896 L 847,895 L 848,895 L 849,894 L 850,894 L 851,893 L 852,893 L 853,892 L 854,892 L 856,890 L 857,890 L 859,888 L 860,888 L 862,886 L 863,886 L 867,882 L 868,882 L 882,868 L 882,867 L 885,864 L 885,863 L 888,860 L 888,859 L 890,857 L 890,856 L 891,855 L 891,854 L 893,852 L 893,851 L 894,850 L 894,849 L 895,848 L 895,847 L 896,846 L 896,845 L 897,844 L 897,843 L 898,842 L 898,840 L 899,839 L 899,838 L 900,837 L 900,836 L 901,835 L 901,833 L 902,832 L 902,830 L 903,829 L 903,827 L 904,826 L 904,823 L 905,822 L 905,819 L 906,818 L 906,815 L 907,814 L 907,809 L 908,808 L 908,802 L 909,801 L 909,784 L 910,783 L 910,760 L 909,759 L 910,758 L 910,757 L 909,756 L 909,754 L 910,753 L 910,752 L 909,751 L 909,655 L 910,654 L 909,653 L 909,646 L 910,645 L 909,644 L 909,612 L 910,611 L 909,610 L 909,505 L 910,504 L 909,503 L 909,497 L 910,496 L 909,495 L 909,433 L 910,432 L 909,431 L 909,393 L 910,392 L 909,391 L 909,248 L 910,247 L 910,240 L 909,239 L 909,221 L 908,220 L 908,214 L 907,213 L 907,208 L 906,207 L 906,204 L 905,203 L 905,200 L 904,199 L 904,197 L 903,196 L 903,194 L 902,193 L 902,191 L 901,190 L 901,188 L 900,187 L 900,185 L 899,184 L 899,183 L 898,182 L 898,181 L 897,180 L 897,179 L 896,178 L 896,177 L 895,176 L 895,174 L 893,172 L 893,171 L 892,170 L 892,169 L 891,168 L 891,167 L 889,165 L 889,164 L 887,162 L 887,161 L 884,158 L 884,157 L 880,153 L 880,152 L 870,142 L 869,142 L 865,138 L 864,138 L 861,135 L 860,135 L 858,133 L 857,133 L 855,131 L 854,131 L 853,130 L 852,130 L 851,129 L 850,129 L 848,127 L 847,127 L 846,126 L 845,126 L 844,125 L 842,125 L 841,124 L 840,124 L 839,123 L 838,123 L 837,122 L 835,122 L 834,121 L 832,121 L 831,120 L 829,120 L 828,119 L 826,119 L 825,118 L 822,118 L 821,117 L 817,117 L 816,116 L 812,116 L 811,115 L 805,115 L 804,114 L 794,114 L 793,113 Z" fill="black" /></svg>